<svg width="66" height="67" viewBox="0 0 66 67" fill="none" xmlns="http://www.w3.org/2000/svg">
<circle cx="33" cy="33.3905" r="33" fill="#FBFBFB"/>
<path d="M46.2008 32.1835V33.3979C46.1992 36.2444 45.2774 39.0141 43.5731 41.2939C41.8688 43.5737 39.4731 45.2416 36.7434 46.0486C34.0138 46.8557 31.0964 46.7588 28.4263 45.7723C25.7562 44.7859 23.4765 42.9627 21.9272 40.5748C20.378 38.1869 19.6421 35.3621 19.8294 32.5218C20.0167 29.6815 21.1171 26.9778 22.9665 24.814C24.8159 22.6502 27.3153 21.1422 30.0917 20.5149C32.8682 19.8876 35.7731 20.1746 38.3732 21.3331" stroke="#053AA3" stroke-width="1.5" stroke-linecap="round" stroke-linejoin="round"/>
<path d="M46.201 22.8368L33.001 36.05L29.041 32.09" stroke="#C40C0C" stroke-width="1.5" stroke-linecap="round" stroke-linejoin="round"/>
</svg>
