<svg width="66" height="67" viewBox="0 0 66 67" fill="none" xmlns="http://www.w3.org/2000/svg">
<circle cx="33" cy="33.3905" r="33" fill="#FBFBFB"/>
<path d="M37.8008 28.8293H42.6008L46.2008 32.4293V38.4293H37.8008V28.8293Z" stroke="#053AA3" stroke-width="1.5" stroke-linecap="round" stroke-linejoin="round"/>
<path d="M25.2012 44.4303C26.858 44.4303 28.2012 43.0872 28.2012 41.4303C28.2012 39.7735 26.858 38.4303 25.2012 38.4303C23.5443 38.4303 22.2012 39.7735 22.2012 41.4303C22.2012 43.0872 23.5443 44.4303 25.2012 44.4303Z" stroke="#053AA3" stroke-width="1.5" stroke-linecap="round" stroke-linejoin="round"/>
<path d="M40.8008 44.4303C42.4576 44.4303 43.8008 43.0872 43.8008 41.4303C43.8008 39.7735 42.4576 38.4303 40.8008 38.4303C39.1439 38.4303 37.8008 39.7735 37.8008 41.4303C37.8008 43.0872 39.1439 44.4303 40.8008 44.4303Z" stroke="#053AA3" stroke-width="1.5" stroke-linecap="round" stroke-linejoin="round"/>
<path d="M37.8008 22.83H19.8008V38.43H37.8008V22.83Z" stroke="#C40C0C" stroke-width="1.5" stroke-linecap="round" stroke-linejoin="round"/>
</svg>
