<svg width="66" height="67" viewBox="0 0 66 67" fill="none" xmlns="http://www.w3.org/2000/svg">
<circle cx="33" cy="33.3905" r="32.5" fill="#C40C0C" stroke="#C40C0C"/>
<path d="M27.0967 43.7775H23.4387C22.7919 43.7775 22.1716 43.5206 21.7143 43.0632C21.2569 42.6059 21 41.9856 21 41.3388V32.8034C21 32.1566 21.2569 31.5363 21.7143 31.0789C22.1716 30.6216 22.7919 30.3647 23.4387 30.3647H27.0967M35.6322 27.926V23.0486C35.6322 22.0784 35.2468 21.148 34.5608 20.462C33.8747 19.7759 32.9443 19.3905 31.9741 19.3905L27.0967 30.3647V43.7775H40.851C41.4391 43.7841 42.0098 43.578 42.458 43.1971C42.9061 42.8162 43.2015 42.2861 43.2897 41.7046L44.9724 30.7305C45.0254 30.381 45.0019 30.0241 44.9033 29.6846C44.8047 29.3451 44.6335 29.0311 44.4016 28.7643C44.1696 28.4975 43.8824 28.2844 43.5599 28.1396C43.2373 27.9949 42.8872 27.922 42.5337 27.926H35.6322Z" stroke="white" stroke-width="1.5" stroke-linecap="square"/>
</svg>
