<svg width="66" height="67" viewBox="0 0 66 67" fill="none" xmlns="http://www.w3.org/2000/svg">
<circle cx="33" cy="33.3905" r="33" fill="#FBFBFB"/>
<path d="M23.5918 43.5556C24.5211 40.3612 26.2635 39.1996 28.2672 39.1996H37.7343C39.738 39.1996 41.4804 40.3612 42.4097 43.5556" stroke="#C40C0C" stroke-width="1.5" stroke-linecap="square"/>
<path d="M33.0005 34.843C35.4063 34.843 37.3565 32.8928 37.3565 30.487C37.3565 28.0813 35.4063 26.131 33.0005 26.131C30.5948 26.131 28.6445 28.0813 28.6445 30.487C28.6445 32.8928 30.5948 34.843 33.0005 34.843Z" stroke="#C40C0C" stroke-width="1.5" stroke-linecap="square"/>
<path d="M33.0005 47.911C41.0196 47.911 47.5205 41.4102 47.5205 33.391C47.5205 25.3718 41.0196 18.871 33.0005 18.871C24.9813 18.871 18.4805 25.3718 18.4805 33.391C18.4805 41.4102 24.9813 47.911 33.0005 47.911Z" stroke="#053AA3" stroke-width="1.5" stroke-linecap="square"/>
</svg>
